<svg version="1.1" xmlns="http://www.w3.org/2000/svg" xmlns:xlink="http://www.w3.org/1999/xlink" xmlns:a="http://ns.adobe.com/AdobeSVGViewerExtensions/3.0/"
	 x="0px" y="0px" width="32.579px" height="31.775px" viewBox="0 0 32.579 31.775"
	 style="enable-background:new 0 0 32.579 31.775;" xml:space="preserve">
<style type="text/css">
	.st0{fill-rule:evenodd;clip-rule:evenodd;fill:#FFFFFF;}
</style>
<defs>
</defs>
<path class="st0" d="M16.288,0C7.294,0,0,7.293,0,16.291c0,7.196,4.667,13.302,11.141,15.456c0.815,0.149,1.112-0.353,1.112-0.785
	c0-0.387-0.014-1.411-0.022-2.77c-4.531,0.984-5.487-2.184-5.487-2.184c-0.741-1.882-1.809-2.383-1.809-2.383
	c-1.479-1.011,0.112-0.99,0.112-0.99c1.635,0.115,2.495,1.679,2.495,1.679c1.453,2.489,3.813,1.771,4.741,1.354
	c0.148-1.053,0.569-1.771,1.034-2.178c-3.617-0.411-7.42-1.809-7.42-8.051c0-1.778,0.635-3.232,1.677-4.371
	c-0.168-0.412-0.727-2.068,0.16-4.311c0,0,1.368-0.438,4.479,1.67c1.299-0.361,2.693-0.542,4.078-0.548
	c1.383,0.006,2.777,0.187,4.078,0.548c3.11-2.108,4.475-1.67,4.475-1.67c0.889,2.243,0.33,3.899,0.162,4.311
	c1.044,1.139,1.674,2.593,1.674,4.371c0,6.258-3.809,7.635-7.438,8.038c0.585,0.503,1.106,1.497,1.106,3.017
	c0,2.178-0.02,3.935-0.02,4.469c0,0.436,0.293,0.942,1.12,0.783c6.467-2.158,11.13-8.26,11.13-15.454
	C32.579,7.293,25.285,0,16.288,0z"/>
</svg>
